PathFileType	4	(X/Y/Z)	C:\Users\dbl\Desktop\20210112(1)\20210112\bx_y_10_502.trc
DataRate	CameraRate	NumFrames	NumMarkers	Units	OrigDataRate	OrigDataStartFrame	OrigNumFrames
50.00	50.00	       4	43	mm	50.00	250	       499
Frame#	Time	Top.Head			R.Acromium			L.Acromium			Sternum			R.ASIS			L.ASIS			V.Sacral			R.Thigh.Upper			R.Thigh.Front			R.Thigh.Rear			R.Knee.Lat			R.Knee.Med			R.Shank.Upper			R.Shank.Front			R.Shank.Rear			R.Ankle.Lat			R.Midfoot.Lat			R.Toe.Lat			R.Toe.Tip			R.Toe.Med			R.Ankle.Med			R.Midfoot.Sup			R.Heel			L.Thigh.Upper			L.Thigh.Front			L.Thigh.Rear			L.Knee.Lat			L.Knee.Med			L.Shank.Upper			L.Shank.Front			L.Shank.Rear			L.Ankle.Lat			L.Midfoot.Lat			L.Toe.Lat			L.Toe.Tip			L.Toe.Med			L.Ankle.Med			L.Midfoot.Sup			L.Heel			origin1 front left			origin2 front right			origin 3 back right			origin 4 back leftt			
		X1	Y1	Z1	X2	Y2	Z2	X3	Y3	Z3	X4	Y4	Z4	X5	Y5	Z5	X6	Y6	Z6	X7	Y7	Z7	X8	Y8	Z8	X9	Y9	Z9	X10	Y10	Z10	X11	Y11	Z11	X12	Y12	Z12	X13	Y13	Z13	X14	Y14	Z14	X15	Y15	Z15	X16	Y16	Z16	X17	Y17	Z17	X18	Y18	Z18	X19	Y19	Z19	X20	Y20	Z20	X21	Y21	Z21	X22	Y22	Z22	X23	Y23	Z23	X24	Y24	Z24	X25	Y25	Z25	X26	Y26	Z26	X27	Y27	Z27	X28	Y28	Z28	X29	Y29	Z29	X30	Y30	Z30	X31	Y31	Z31	X32	Y32	Z32	X33	Y33	Z33	X34	Y34	Z34	X35	Y35	Z35	X36	Y36	Z36	X37	Y37	Z37	X38	Y38	Z38	X39	Y39	Z39	X40	Y40	Z40	X41	Y41	Z41	X42	Y42	Z42	X43	Y43	Z43	

250	4.980	-755.00964	100.96625	1846.75061	-732.51288	-81.34169	1536.99890	-723.84692	271.71875	1546.17529	-638.42743	92.92334	1431.75952	-606.53455	1.91275	1058.81836	-592.76239	229.81165	1076.26721	-804.16663	93.67734	1058.62012	-654.01813	-63.11264	872.00201	-588.48688	-0.64424	806.24615	-697.46527	-43.81224	719.86713	-699.68408	-24.88859	618.76636	-689.72913	84.53929	576.53564	-715.49054	-21.23714	568.72589	-667.48969	21.75408	520.43921	-763.92950	-31.74333	490.45511	-767.13489	-3.36698	208.52592	-665.39276	-67.14869	163.00572	-624.22430	-78.57932	159.15738	-559.67175	-40.59225	162.71542	-603.17896	19.27286	166.59373	-716.57739	79.13277	216.02951	-675.44965	55.01874	157.21576	-794.67010	57.09211	175.10501	-655.25006	284.37662	882.05811	-595.51343	221.28471	820.43323	-702.64618	272.59457	751.97870	-730.20233	249.96373	647.21649	-694.38110	144.00220	577.03674	-735.25751	244.73921	579.22083	-680.14246	206.78635	535.85773	-776.25598	253.02628	505.25232	-771.74792	222.16795	205.79605	-667.14587	299.57578	159.49179	-629.59631	307.26935	161.44411	-560.48059	261.36835	164.62817	-594.90869	222.70313	173.68542	-711.43359	152.39589	217.15666	-675.84625	174.17902	157.60831	-796.55267	171.51866	184.42006	-528.09491	304.61774	146.63634	-517.98572	-72.53751	142.82182	-876.06018	-78.56136	141.58900	-882.52618	296.20917	144.71506	
251	5.000	-754.17358	101.03339	1846.89697	-732.13824	-81.46164	1537.03271	-723.59857	271.70776	1546.24219	-638.34692	92.89412	1431.80945	-606.87976	1.46040	1058.93738	-594.00812	229.12297	1075.97693	-804.40771	93.58306	1058.64600	-654.32037	-63.07990	871.93243	-588.67609	-0.66786	806.24951	-697.69586	-43.87273	719.82874	-699.89215	-24.99585	618.82739	-689.99921	84.51702	576.58807	-715.77673	-21.22082	568.68707	-667.54663	21.76884	520.42157	-764.00092	-31.74775	490.35629	-767.02930	-3.36988	208.52066	-665.36792	-67.15532	163.02821	-624.23041	-78.60313	159.21660	-559.69263	-40.60798	162.71831	-603.16290	19.31594	166.50633	-716.61481	79.09441	215.92966	-675.45758	55.09357	157.14407	-794.60791	57.13766	175.12021	-655.44745	284.27615	881.98889	-595.68207	221.22089	820.51514	-702.90979	272.52417	752.02802	-730.43463	249.92006	647.26770	-694.48352	143.98341	576.96912	-735.61407	244.60298	579.13525	-680.20386	206.70918	535.90662	-776.32947	253.04602	505.20828	-771.76843	222.16284	205.78514	-667.14764	299.56125	159.46761	-629.58313	307.24561	161.44971	-560.43976	261.34406	164.59140	-594.86121	222.70145	173.69740	-711.40936	152.36906	217.20375	-675.84851	174.15541	157.63377	-796.51300	171.50336	184.45404	-528.10535	304.53455	146.64044	-518.00079	-72.51699	142.83589	-876.07629	-78.54385	141.61656	-882.50226	296.22504	144.74648	
252	5.020	-753.40973	101.07031	1847.02466	-731.80664	-81.61913	1537.05273	-723.27307	271.77112	1546.36096	-638.22144	92.80964	1431.84180	-607.31421	1.00376	1059.03992	-595.32703	228.43120	1075.69849	-804.69269	93.52021	1058.66614	-654.76245	-63.02612	871.83875	-588.97101	-0.69980	806.23175	-698.08875	-43.91649	719.76312	-700.19244	-25.08027	618.84247	-690.34479	84.45470	576.64496	-716.14252	-21.19113	568.65186	-667.67706	21.75361	520.37781	-764.18274	-31.77716	490.24094	-766.88538	-3.33629	208.49129	-665.32184	-67.16987	163.06342	-624.24237	-78.59829	159.24896	-559.72253	-40.61274	162.73248	-603.13660	19.33894	166.40999	-716.62653	79.07275	215.85017	-675.46057	55.14628	157.08405	-794.53992	57.17935	175.12450	-655.71088	284.11295	881.95459	-595.97235	221.14154	820.62341	-703.32318	272.49213	752.11328	-730.77368	249.90146	647.28418	-694.60712	143.96646	576.97961	-736.02112	244.52222	579.07312	-680.36212	206.66093	535.88361	-776.47711	253.07857	505.11279	-771.76593	222.16051	205.78157	-667.15472	299.55215	159.45786	-629.56964	307.21078	161.47011	-560.39868	261.31845	164.56250	-594.80255	222.70874	173.69209	-711.37848	152.34288	217.29001	-675.80786	174.10803	157.68954	-796.49670	171.48869	184.45340	-528.10608	304.42557	146.60020	-518.02063	-72.45026	142.79387	-876.08282	-78.53586	141.60516	-882.48145	296.21835	144.75282	
253	5.040	-752.68506	101.08034	1847.15051	-731.46948	-81.83875	1537.11511	-722.78821	271.89557	1546.53345	-637.99390	92.63704	1431.83752	-607.83801	0.54371	1059.12500	-596.71478	227.74042	1075.43457	-805.09717	93.47347	1058.70129	-655.33893	-63.00169	871.73401	-589.42291	-0.78983	806.17297	-698.63593	-43.97874	719.72284	-700.60663	-25.07877	618.75793	-690.69824	84.35538	576.64581	-716.52386	-21.15300	568.61639	-667.92651	21.66951	520.34521	-764.44122	-31.80326	490.13226	-766.78992	-3.26643	208.43277	-665.25323	-67.17660	163.08484	-624.23877	-78.57004	159.24088	-559.74609	-40.60572	162.74310	-603.12177	19.34723	166.35364	-716.58563	79.09050	215.84196	-675.45251	55.16626	157.07092	-794.49463	57.20750	175.11771	-656.12006	283.87994	881.93085	-596.43188	221.06078	820.69592	-703.87073	272.49875	752.21497	-731.26947	249.88019	647.25476	-694.78595	143.91991	577.06799	-736.40570	244.53358	579.08038	-680.65393	206.63179	535.79639	-776.72845	253.11874	505.00192	-771.75348	222.16785	205.78813	-667.15839	299.55286	159.46567	-629.56055	307.18414	161.48918	-560.37079	261.30844	164.55827	-594.75806	222.71770	173.67128	-711.35327	152.32953	217.36705	-675.74640	174.06584	157.73793	-796.48999	171.47556	184.43709	-528.08539	304.34637	146.57188	-518.03656	-72.38759	142.73822	-876.09015	-78.55535	141.57452	-882.47375	296.19763	144.73630	
